<mxfile host="drawio-plugin" modified="2023-02-04T14:37:18.073Z" agent="5.0 (Windows NT 6.2; Win64; x64) AppleWebKit/537.36 (KHTML, like Gecko) Chrome/104.0.5112.102 Safari/537.36" etag="ngNfVwyAdtop7oKn1wd5" version="20.5.3" type="embed"><diagram id="23iRSUPoRavnBvh4doch" name="Page-1"><mxGraphModel dx="1030" dy="798" grid="1" gridSize="10" guides="1" tooltips="1" connect="1" arrows="1" fold="1" page="1" pageScale="1" pageWidth="827" pageHeight="1169" math="0" shadow="0"><root><mxCell id="0"/><mxCell id="1" parent="0"/><mxCell id="2" value="Admin" style="shape=table;startSize=30;container=1;collapsible=0;childLayout=tableLayout;fontStyle=1;align=center;" vertex="1" parent="1"><mxGeometry x="160" y="190" width="145" height="70" as="geometry"/></mxCell><mxCell id="3" value="" style="shape=tableRow;horizontal=0;startSize=0;swimlaneHead=0;swimlaneBody=0;top=0;left=0;bottom=0;right=0;collapsible=0;dropTarget=0;fillColor=none;points=[[0,0.5],[1,0.5]];portConstraint=eastwest;" vertex="1" parent="2"><mxGeometry y="30" width="145" height="40" as="geometry"/></mxCell><mxCell id="4" value="username" style="shape=partialRectangle;html=1;whiteSpace=wrap;connectable=0;fillColor=none;top=0;left=0;bottom=0;right=0;overflow=hidden;fontStyle=4" vertex="1" parent="3"><mxGeometry width="73" height="40" as="geometry"><mxRectangle width="73" height="40" as="alternateBounds"/></mxGeometry></mxCell><mxCell id="5" value="password" style="shape=partialRectangle;html=1;whiteSpace=wrap;connectable=0;fillColor=none;top=0;left=0;bottom=0;right=0;overflow=hidden;" vertex="1" parent="3"><mxGeometry x="73" width="72" height="40" as="geometry"><mxRectangle width="72" height="40" as="alternateBounds"/></mxGeometry></mxCell><mxCell id="16" value="Customer" style="shape=table;startSize=30;container=1;collapsible=0;childLayout=tableLayout;fontStyle=1;align=center;" vertex="1" parent="1"><mxGeometry x="160" y="300" width="289" height="70" as="geometry"/></mxCell><mxCell id="17" value="" style="shape=tableRow;horizontal=0;startSize=0;swimlaneHead=0;swimlaneBody=0;top=0;left=0;bottom=0;right=0;collapsible=0;dropTarget=0;fillColor=none;points=[[0,0.5],[1,0.5]];portConstraint=eastwest;" vertex="1" parent="16"><mxGeometry y="30" width="289" height="40" as="geometry"/></mxCell><mxCell id="18" value="id" style="shape=partialRectangle;html=1;whiteSpace=wrap;connectable=0;fillColor=none;top=0;left=0;bottom=0;right=0;overflow=hidden;fontStyle=4" vertex="1" parent="17"><mxGeometry width="73" height="40" as="geometry"><mxRectangle width="73" height="40" as="alternateBounds"/></mxGeometry></mxCell><mxCell id="19" value="name" style="shape=partialRectangle;html=1;whiteSpace=wrap;connectable=0;fillColor=none;top=0;left=0;bottom=0;right=0;overflow=hidden;" vertex="1" parent="17"><mxGeometry x="73" width="72" height="40" as="geometry"><mxRectangle width="72" height="40" as="alternateBounds"/></mxGeometry></mxCell><mxCell id="20" value="phone" style="shape=partialRectangle;html=1;whiteSpace=wrap;connectable=0;fillColor=none;top=0;left=0;bottom=0;right=0;overflow=hidden;" vertex="1" parent="17"><mxGeometry x="145" width="72" height="40" as="geometry"><mxRectangle width="72" height="40" as="alternateBounds"/></mxGeometry></mxCell><mxCell id="21" value="address" style="shape=partialRectangle;html=1;whiteSpace=wrap;connectable=0;fillColor=none;top=0;left=0;bottom=0;right=0;overflow=hidden;" vertex="1" parent="17"><mxGeometry x="217" width="72" height="40" as="geometry"><mxRectangle width="72" height="40" as="alternateBounds"/></mxGeometry></mxCell><mxCell id="23" value="Product" style="shape=table;startSize=30;container=1;collapsible=0;childLayout=tableLayout;fontStyle=1;align=center;" vertex="1" parent="1"><mxGeometry x="160" y="410" width="560" height="70" as="geometry"/></mxCell><mxCell id="24" value="" style="shape=tableRow;horizontal=0;startSize=0;swimlaneHead=0;swimlaneBody=0;top=0;left=0;bottom=0;right=0;collapsible=0;dropTarget=0;fillColor=none;points=[[0,0.5],[1,0.5]];portConstraint=eastwest;" vertex="1" parent="23"><mxGeometry y="30" width="560" height="40" as="geometry"/></mxCell><mxCell id="25" value="number" style="shape=partialRectangle;html=1;whiteSpace=wrap;connectable=0;fillColor=none;top=0;left=0;bottom=0;right=0;overflow=hidden;fontStyle=4" vertex="1" parent="24"><mxGeometry width="113" height="40" as="geometry"><mxRectangle width="113" height="40" as="alternateBounds"/></mxGeometry></mxCell><mxCell id="26" value="customer_id" style="shape=partialRectangle;html=1;whiteSpace=wrap;connectable=0;fillColor=none;top=0;left=0;bottom=0;right=0;overflow=hidden;fontStyle=4" vertex="1" parent="24"><mxGeometry x="113" width="112" height="40" as="geometry"><mxRectangle width="112" height="40" as="alternateBounds"/></mxGeometry></mxCell><mxCell id="27" value="description" style="shape=partialRectangle;html=1;whiteSpace=wrap;connectable=0;fillColor=none;top=0;left=0;bottom=0;right=0;overflow=hidden;" vertex="1" parent="24"><mxGeometry x="225" width="111" height="40" as="geometry"><mxRectangle width="111" height="40" as="alternateBounds"/></mxGeometry></mxCell><mxCell id="28" value="picture" style="shape=partialRectangle;html=1;whiteSpace=wrap;connectable=0;fillColor=none;top=0;left=0;bottom=0;right=0;overflow=hidden;" vertex="1" parent="24"><mxGeometry x="336" width="112" height="40" as="geometry"><mxRectangle width="112" height="40" as="alternateBounds"/></mxGeometry></mxCell><mxCell id="29" value="special_treatement" style="shape=partialRectangle;html=1;whiteSpace=wrap;connectable=0;fillColor=none;top=0;left=0;bottom=0;right=0;overflow=hidden;" vertex="1" parent="24"><mxGeometry x="448" width="112" height="40" as="geometry"><mxRectangle width="112" height="40" as="alternateBounds"/></mxGeometry></mxCell><mxCell id="41" value="" style="edgeStyle=segmentEdgeStyle;endArrow=classic;html=1;rounded=0;entryX=0.138;entryY=1.025;entryDx=0;entryDy=0;entryPerimeter=0;strokeWidth=2;endSize=3;startSize=3;" edge="1" parent="1" source="24" target="17"><mxGeometry width="50" height="50" relative="1" as="geometry"><mxPoint x="325" y="490" as="sourcePoint"/><mxPoint x="200" y="410" as="targetPoint"/><Array as="points"><mxPoint x="325" y="500"/><mxPoint x="140" y="500"/><mxPoint x="140" y="390"/><mxPoint x="200" y="390"/></Array></mxGeometry></mxCell></root></mxGraphModel></diagram></mxfile>